<svg xmlns="http://www.w3.org/2000/svg" xmlns:xlink="http://www.w3.org/1999/xlink" width="60" zoomAndPan="magnify" viewBox="0 0 45 44.999999" height="60" preserveAspectRatio="xMidYMid meet" version="1.0"><path fill="#ffffff" d="M 13.230469 0 C 5.96875 0 0 5.960938 0 13.230469 L 0 31.769531 C 0 39.03125 5.960938 45 13.230469 45 L 31.769531 45 C 39.03125 45 45 39.039062 45 31.769531 L 45 13.230469 C 45 5.96875 39.039062 0 31.769531 0 Z M 13.230469 4.089844 L 31.769531 4.089844 C 36.824219 4.089844 40.910156 8.171875 40.910156 13.230469 L 40.910156 31.769531 C 40.910156 36.824219 36.824219 40.910156 31.769531 40.910156 L 13.230469 40.910156 C 8.171875 40.910156 4.089844 36.824219 4.089844 31.769531 L 4.089844 13.230469 C 4.089844 8.171875 8.171875 4.089844 13.230469 4.089844 Z M 34.582031 8.566406 C 33.550781 8.566406 32.726562 9.386719 32.726562 10.417969 C 32.726562 11.449219 33.550781 12.273438 34.582031 12.273438 C 35.613281 12.273438 36.433594 11.449219 36.433594 10.417969 C 36.433594 9.386719 35.613281 8.566406 34.582031 8.566406 Z M 22.5 10.226562 C 15.75 10.226562 10.226562 15.75 10.226562 22.5 C 10.226562 29.25 15.75 34.773438 22.5 34.773438 C 29.25 34.773438 34.773438 29.25 34.773438 22.5 C 34.773438 15.75 29.25 10.226562 22.5 10.226562 Z M 22.5 14.316406 C 27.046875 14.316406 30.683594 17.953125 30.683594 22.5 C 30.683594 27.046875 27.046875 30.683594 22.5 30.683594 C 17.953125 30.683594 14.316406 27.046875 14.316406 22.5 C 14.316406 17.953125 17.953125 14.316406 22.5 14.316406 Z M 22.5 14.316406 " fill-opacity="1" fill-rule="nonzero"/></svg>