<svg xmlns="http://www.w3.org/2000/svg" xmlns:xlink="http://www.w3.org/1999/xlink" width="1080" zoomAndPan="magnify" viewBox="0 0 810 809.999993" height="1080" preserveAspectRatio="xMidYMid meet" version="1.0"><path fill="#000000" d="M 404.648438 -0.246094 C 181.035156 -0.246094 -0.238281 181.027344 -0.238281 404.644531 C -0.238281 628.25 181.035156 809.53125 404.648438 809.53125 C 628.265625 809.53125 809.539062 628.25 809.539062 404.644531 C 809.539062 181.027344 628.265625 -0.246094 404.648438 -0.246094 Z M 528.027344 432.066406 C 526.050781 434.039062 523.886719 435.707031 521.632812 437.15625 L 369.679688 589.109375 C 362.300781 596.496094 352.625 600.183594 342.953125 600.183594 C 333.277344 600.183594 323.609375 596.496094 316.222656 589.109375 C 301.457031 574.34375 301.457031 550.402344 316.222656 535.644531 L 447.160156 404.683594 L 316.878906 274.40625 C 302.117188 259.632812 302.117188 235.699219 316.878906 220.941406 C 331.644531 206.175781 355.582031 206.183594 370.347656 220.933594 L 521.628906 372.207031 C 523.882812 373.65625 526.042969 375.324219 528.011719 377.296875 C 535.558594 384.84375 539.199219 394.785156 539.03125 404.683594 C 539.214844 414.578125 535.582031 424.511719 528.027344 432.066406 Z M 528.027344 432.066406 " fill-opacity="1" fill-rule="nonzero"/></svg>