<svg xmlns="http://www.w3.org/2000/svg" xmlns:xlink="http://www.w3.org/1999/xlink" width="1080" zoomAndPan="magnify" viewBox="0 0 810 809.999993" height="1080" preserveAspectRatio="xMidYMid meet" version="1.0"><defs><clipPath id="385cad8469"><path d="M 2.023438 0 L 808.273438 0 L 808.273438 810 L 2.023438 810 Z M 2.023438 0 " clip-rule="nonzero"/></clipPath></defs><g clip-path="url(#385cad8469)"><path fill="#ffffff" d="M 690.78125 117.710938 C 614.96875 41.765625 514.121094 0.00390625 406.722656 0.00390625 C 185.460938 0.00390625 5.378906 180.03125 5.378906 401.355469 C 5.378906 472.050781 23.902344 541.207031 59.003906 601.976562 L 2.023438 809.996094 L 214.890625 754.15625 C 273.589844 786.117188 339.628906 803.0625 406.671875 803.0625 L 406.835938 803.0625 C 628.097656 803.0625 808.339844 623.035156 808.339844 401.710938 C 808.339844 294.4375 766.5625 193.6875 690.75 117.777344 Z M 406.835938 735.347656 C 346.875 735.347656 288.140625 719.195312 236.882812 688.804688 L 224.664062 681.515625 L 98.355469 714.582031 L 132.09375 591.507812 L 124.1875 578.875 C 90.605469 525.851562 73.070312 464.503906 73.070312 401.386719 C 73.070312 217.421875 222.785156 67.703125 407.011719 67.703125 C 496.097656 67.703125 580.027344 102.515625 642.988281 165.453125 C 705.984375 228.582031 740.613281 312.273438 740.613281 401.484375 C 740.46875 585.582031 590.757812 735.300781 406.804688 735.300781 Z M 589.785156 485.398438 C 579.820312 480.328125 530.421875 456.144531 521.265625 452.789062 C 512.09375 449.4375 505.417969 447.71875 498.609375 457.859375 C 491.964844 467.824219 472.679688 490.472656 466.796875 497.242188 C 460.914062 503.882812 455.097656 504.839844 445.128906 499.769531 C 435.164062 494.699219 402.703125 484.121094 364.425781 449.9375 C 334.652344 423.371094 314.460938 390.46875 308.578125 380.503906 C 302.695312 370.542969 307.929688 365.003906 313.035156 360.109375 C 317.652344 355.640625 323.019531 348.414062 328.074219 342.550781 C 333.148438 336.667969 334.71875 332.570312 338.058594 325.78125 C 341.410156 319.140625 339.773438 313.261719 337.246094 308.222656 C 334.71875 303.167969 314.589844 253.789062 306.40625 233.6875 C 298.351562 214.035156 289.941406 216.773438 283.765625 216.433594 C 277.882812 216.140625 271.238281 216.140625 264.609375 216.140625 C 257.984375 216.140625 247.042969 218.652344 237.871094 228.648438 C 228.699219 238.609375 202.71875 262.976562 202.71875 312.335938 C 202.71875 361.699219 238.632812 409.324219 243.6875 416.113281 C 248.761719 422.738281 314.445312 524.148438 415.066406 567.535156 C 438.972656 577.804688 457.65625 583.992188 472.210938 588.753906 C 496.277344 596.335938 518.105469 595.234375 535.367188 592.691406 C 554.667969 589.855469 594.726562 568.472656 603.121094 545.046875 C 611.515625 521.605469 611.515625 501.550781 609.003906 497.402344 C 606.625 492.933594 599.996094 490.472656 589.851562 485.335938 Z M 589.785156 485.398438 " fill-opacity="1" fill-rule="evenodd"/></g></svg>